<svg width="51" height="39" viewBox="0 0 51 39" fill="none" xmlns="http://www.w3.org/2000/svg">
<rect x="1.24413" y="0.725089" width="48.5156" height="36.8595" rx="5.09955" stroke="black" stroke-width="1.45701"/>
<path d="M20.2504 21.4057H19.5002C19.1022 21.4057 18.7206 21.2476 18.4392 20.9662C18.1578 20.6848 17.9998 20.3032 17.9998 19.9052V13.1533C17.9998 12.7553 18.1578 12.3737 18.4392 12.0923C18.7206 11.8109 19.1022 11.6528 19.5002 11.6528H26.2521C26.6501 11.6528 27.0317 11.8109 27.3131 12.0923C27.5945 12.3737 27.7526 12.7553 27.7526 13.1533V13.9035M24.7517 16.9043H31.5037C32.3323 16.9043 33.0041 17.5761 33.0041 18.4048V25.1567C33.0041 25.9854 32.3323 26.6572 31.5037 26.6572H24.7517C23.9231 26.6572 23.2513 25.9854 23.2513 25.1567V18.4048C23.2513 17.5761 23.9231 16.9043 24.7517 16.9043Z" stroke="black" stroke-width="1.93707" stroke-linecap="round" stroke-linejoin="round"/>
</svg>
