<svg width="152" height="101" viewBox="0 0 152 101" fill="none" xmlns="http://www.w3.org/2000/svg">
<path d="M141.793 27.0957C145.226 41.0371 117.808 59.7619 80.5884 68.9258C43.3391 78.0878 10.3881 74.2117 6.95593 60.2703C3.53344 46.3559 30.9266 27.6303 68.1713 18.4695C105.393 9.31491 138.373 13.1784 141.793 27.0957Z" fill="#FF873E"/>
<path d="M141.793 27.0957C145.226 41.0371 117.808 59.7619 80.5884 68.9258C43.3391 78.0878 10.3881 74.2117 6.95593 60.2703C3.53344 46.3559 30.9266 27.6303 68.1713 18.4695C105.393 9.31491 138.373 13.1784 141.793 27.0957Z" fill="#FF873E" stroke="black" stroke-width="3.88474" stroke-miterlimit="10"/>
<path d="M78.3827 59.9685C35.8379 70.4384 16.5891 60.8289 15.9109 58.0679C14.8824 53.8889 32.0153 36.8593 70.3718 27.4203C108.734 17.9847 131.812 25.1228 132.837 29.2956C134.006 34.0265 116.365 50.6248 78.3827 59.9685Z" fill="#FF873E"/>
<path d="M78.3827 59.9685C35.8379 70.4384 16.5891 60.8289 15.9109 58.0679C14.8824 53.8889 32.0153 36.8593 70.3718 27.4203C108.734 17.9847 131.812 25.1228 132.837 29.2956C134.006 34.0265 116.365 50.6248 78.3827 59.9685Z" fill="#FF873E" stroke="black" stroke-width="3.88474" stroke-miterlimit="10"/>
<path d="M141.789 27.0956L145.214 41.0094C148.643 54.9491 121.224 73.6792 84.0072 82.8326C46.7597 92.0015 13.8012 88.125 10.3736 74.1823L6.95174 60.2703C10.3839 74.2116 43.3349 78.0877 80.5842 68.9257C117.803 59.7619 145.221 41.037 141.789 27.0956Z" fill="#FF873E"/>
<path d="M141.789 27.0956L145.214 41.0094C148.643 54.9491 121.224 73.6792 84.0072 82.8326C46.7597 92.0015 13.8012 88.125 10.3736 74.1823L6.95174 60.2703C10.3839 74.2116 43.3349 78.0877 80.5842 68.9257C117.803 59.7619 145.221 41.037 141.789 27.0956Z" fill="#FF873E" stroke="black" stroke-width="3.88474" stroke-miterlimit="10"/>
</svg>
