<svg width="803" height="134" viewBox="0 0 803 134" fill="none" xmlns="http://www.w3.org/2000/svg">
<path d="M799.625 66.9451C799.625 70.2365 797.621 73.9651 792.58 78.0599C787.577 82.1237 780.016 86.1778 769.991 90.1176C749.97 97.9852 720.823 105.131 684.591 111.153C612.175 123.19 512.02 130.65 401.312 130.65C290.605 130.65 190.45 123.19 118.034 111.153C81.8015 105.131 52.6547 97.9852 32.6344 90.1176C22.6092 86.1778 15.0476 82.1237 10.0447 78.0599C5.00356 73.9651 3 70.2365 3 66.9451C3 63.6538 5.00356 59.9252 10.0447 55.8304C15.0476 51.7666 22.6092 47.7124 32.6344 43.7727C52.6547 35.9051 81.8015 28.7594 118.034 22.737C190.45 10.7003 290.605 3.24023 401.312 3.24023C512.02 3.24023 612.175 10.7003 684.591 22.737C720.823 28.7594 749.97 35.9051 769.991 43.7727C780.016 47.7124 787.577 51.7666 792.58 55.8304C797.621 59.9252 799.625 63.6538 799.625 66.9451Z" fill="#B1DDFF" stroke="black" stroke-width="6"/>
</svg>
