<svg width="1195" height="268" viewBox="0 0 1195 268" fill="none" xmlns="http://www.w3.org/2000/svg">
<path d="M21.9123 223.725L25.2658 234.813C25.4745 235.503 25.9709 236.069 26.6277 236.366L36.7223 240.936C37.8975 241.468 37.8975 243.137 36.7223 243.669L26.6277 248.239C25.9709 248.537 25.4745 249.103 25.2658 249.793L21.9123 260.881C21.4825 262.302 19.4706 262.302 19.0408 260.881L15.6874 249.793C15.4787 249.103 14.9822 248.537 14.3255 248.239L4.23079 243.669C3.05563 243.137 3.05563 241.468 4.23079 240.936L14.3255 236.366C14.9822 236.069 15.4787 235.503 15.6874 234.813L19.0408 223.725C19.4706 222.304 21.4825 222.304 21.9123 223.725Z" fill="white" stroke="black"/>
<path d="M58.2014 210.086L60.2951 217.008C60.5038 217.698 61.0002 218.264 61.657 218.562L68.3473 221.591C69.5225 222.123 69.5225 223.792 68.3473 224.324L61.657 227.352C61.0002 227.65 60.5038 228.216 60.2951 228.906L58.2014 235.829C57.7716 237.25 55.7596 237.25 55.3299 235.829L53.2361 228.906C53.0274 228.216 52.531 227.65 51.8742 227.352L45.1839 224.324C44.0088 223.792 44.0088 222.123 45.1839 221.591L51.8742 218.562C52.531 218.264 53.0274 217.698 53.2361 217.008L55.3299 210.086C55.7596 208.665 57.7716 208.665 58.2014 210.086Z" fill="#F9DF94" stroke="black"/>
<path d="M100.112 11.6329L103.465 22.7204C103.674 23.4104 104.17 23.9768 104.827 24.2741L114.922 28.8441C116.097 29.3761 116.097 31.0451 114.922 31.5771L104.827 36.1471C104.17 36.4444 103.674 37.0108 103.465 37.7008L100.112 48.7883C99.6818 50.2093 97.6698 50.2093 97.24 48.7883L93.8866 37.7008C93.6779 37.0108 93.1814 36.4444 92.5247 36.1471L82.43 31.5771C81.2548 31.0451 81.2548 29.3761 82.43 28.8441L92.5247 24.2741C93.1814 23.9768 93.6779 23.4104 93.8866 22.7204L97.24 11.6329C97.6698 10.2119 99.6818 10.2119 100.112 11.6329Z" fill="#FEE089" stroke="black"/>
<path d="M1144.06 6.4742L1148.61 21.5284C1148.82 22.2184 1149.32 22.7848 1149.98 23.0821L1163.31 29.1199C1164.49 29.652 1164.49 31.3209 1163.31 31.8529L1149.98 37.8907C1149.32 38.1881 1148.82 38.7544 1148.61 39.4445L1144.06 54.4987C1143.63 55.9197 1141.62 55.9197 1141.19 54.4987L1136.64 39.4445C1136.43 38.7544 1135.93 38.1881 1135.27 37.8907L1121.94 31.8529C1120.76 31.3209 1120.76 29.652 1121.94 29.1199L1135.27 23.0821C1135.93 22.7848 1136.43 22.2184 1136.64 21.5284L1141.19 6.47419C1141.62 5.0532 1143.63 5.05319 1144.06 6.4742Z" fill="#FEE089" stroke="black"/>
<path d="M1177.8 45.5391L1180.46 54.3319C1180.67 55.022 1181.16 55.5884 1181.82 55.8857L1190.04 59.6066C1191.22 60.1386 1191.22 61.8075 1190.04 62.3396L1181.82 66.0605C1181.16 66.3578 1180.67 66.9241 1180.46 67.6142L1177.8 76.407C1177.37 77.828 1175.36 77.828 1174.93 76.407L1172.27 67.6142C1172.06 66.9241 1171.56 66.3578 1170.91 66.0605L1162.69 62.3396C1161.51 61.8075 1161.51 60.1386 1162.69 59.6066L1170.91 55.8857C1171.56 55.5884 1172.06 55.022 1172.27 54.3319L1174.93 45.5391C1175.36 44.1181 1177.37 44.1181 1177.8 45.5391Z" fill="#FFFDF5" stroke="black"/>
</svg>
